<svg width="39" height="32" viewBox="0 0 39 32" fill="none" xmlns="http://www.w3.org/2000/svg">
<path d="M3.9 3.55556H9.75L13.65 0H25.35L29.25 3.55556H35.1C36.1343 3.55556 37.1263 3.93016 37.8577 4.59695C38.5891 5.26375 39 6.16812 39 7.11111V28.4444C39 29.3874 38.5891 30.2918 37.8577 30.9586C37.1263 31.6254 36.1343 32 35.1 32H3.9C2.86566 32 1.87368 31.6254 1.14228 30.9586C0.410891 30.2918 0 29.3874 0 28.4444V7.11111C0 6.16812 0.410891 5.26375 1.14228 4.59695C1.87368 3.93016 2.86566 3.55556 3.9 3.55556ZM19.5 8.88889C16.9141 8.88889 14.4342 9.82539 12.6057 11.4924C10.7772 13.1594 9.75 15.4203 9.75 17.7778C9.75 20.1353 10.7772 22.3962 12.6057 24.0632C14.4342 25.7302 16.9141 26.6667 19.5 26.6667C22.0859 26.6667 24.5658 25.7302 26.3943 24.0632C28.2228 22.3962 29.25 20.1353 29.25 17.7778C29.25 15.4203 28.2228 13.1594 26.3943 11.4924C24.5658 9.82539 22.0859 8.88889 19.5 8.88889ZM19.5 12.4444C21.0515 12.4444 22.5395 13.0063 23.6366 14.0065C24.7337 15.0067 25.35 16.3633 25.35 17.7778C25.35 19.1923 24.7337 20.5488 23.6366 21.549C22.5395 22.5492 21.0515 23.1111 19.5 23.1111C17.9485 23.1111 16.4605 22.5492 15.3634 21.549C14.2663 20.5488 13.65 19.1923 13.65 17.7778C13.65 16.3633 14.2663 15.0067 15.3634 14.0065C16.4605 13.0063 17.9485 12.4444 19.5 12.4444Z" fill="#DAD7D5"/>
</svg>
