<svg width="18" height="18" viewBox="0 0 18 18" fill="none" xmlns="http://www.w3.org/2000/svg">
<path d="M1.6875 6.1875H16.3125M1.6875 6.75H16.3125M3.9375 10.6875H8.4375M3.9375 12.375H6.1875M3.375 14.625H14.625C15.0726 14.625 15.5018 14.4472 15.8182 14.1307C16.1347 13.8143 16.3125 13.3851 16.3125 12.9375V5.0625C16.3125 4.61495 16.1347 4.18573 15.8182 3.86926C15.5018 3.55279 15.0726 3.375 14.625 3.375H3.375C2.92745 3.375 2.49822 3.55279 2.18176 3.86926C1.86529 4.18573 1.6875 4.61495 1.6875 5.0625V12.9375C1.6875 13.3851 1.86529 13.8143 2.18176 14.1307C2.49822 14.4472 2.92745 14.625 3.375 14.625Z" stroke="#545454" stroke-width="1.5" stroke-linecap="round" stroke-linejoin="round"/>
</svg>
