<svg width="19" height="37" viewBox="0 0 19 37" fill="none" xmlns="http://www.w3.org/2000/svg">
<path d="M4.47096 3.41025C1.60825 5.59379 0 8.55531 0 11.6433V15.5244C0 16.2106 0.35739 16.8687 0.993547 17.354C1.6297 17.8392 2.49252 18.1118 3.39218 18.1118H6.59779L6.52995 18.606C6.37051 19.7755 6.15681 21.3538 5.9431 23.002C5.52586 26.2518 5.08827 29.8948 5.08827 31.0488C5.08827 32.4213 5.80305 33.7375 7.07537 34.708C8.34768 35.6784 10.0733 36.2236 11.8726 36.2236C13.672 36.2236 15.3976 35.6784 16.6699 34.708C17.9422 33.7375 18.657 32.4213 18.657 31.0488C18.657 29.8948 18.2194 26.2518 17.8022 23.002C17.5541 21.0692 17.2952 19.1373 17.0254 17.2062L16.9609 16.7483V1.2937C16.9609 0.95059 16.7822 0.621532 16.4641 0.378916C16.1461 0.1363 15.7146 0 15.2648 0C11.2163 0 7.33367 1.2267 4.47096 3.41025Z" fill="#FF5751"/>
</svg>
