<svg width="21" height="37" viewBox="0 0 21 37" fill="none" xmlns="http://www.w3.org/2000/svg">
<path d="M17.7174 0.139724C17.9418 0.224595 18.1388 0.34634 18.2943 0.496211C18.4497 0.646081 18.5597 0.820354 18.6163 1.0065C18.6773 1.21091 20.3531 6.68068 20.3531 10.3496C20.3531 12.8076 18.8537 14.9992 16.5199 16.4197C15.6719 16.9371 15.2648 17.5012 15.2648 17.9721V19.2296C15.2648 19.2899 15.2693 19.3469 15.2784 19.4003C15.3937 20.042 15.811 22.425 16.2011 24.896C16.5844 27.3204 16.9609 29.9647 16.9609 31.0488C16.9609 32.4213 16.2461 33.7375 14.9738 34.708C13.7015 35.6784 11.9759 36.2236 10.1765 36.2236C8.37722 36.2236 6.65159 35.6784 5.37927 34.708C4.10696 33.7375 3.39218 32.4213 3.39218 31.0488C3.39218 29.9621 3.76871 27.323 4.15203 24.896C4.54213 22.425 4.95937 20.042 5.0747 19.4003L5.08827 19.2296V17.9721C5.08827 17.5012 4.68121 16.9371 3.83316 16.4197C2.63736 15.6926 1.67176 14.7693 1.00814 13.7184C0.344517 12.6675 -6.69145e-05 11.5161 9.74654e-09 10.3496C9.74654e-09 6.69361 1.66217 1.25231 1.7368 1.00909C1.82498 0.721475 2.03832 0.465136 2.34203 0.281879C2.64574 0.0986225 3.02189 -0.000737531 3.40914 4.122e-06C4.35895 4.122e-06 5.12898 0.587344 5.12898 1.31182V9.06885C5.1156 9.24358 5.14932 9.41854 5.22806 9.58294C5.30679 9.74734 5.42886 9.89768 5.58674 10.0247C5.74462 10.1517 5.93495 10.2527 6.14599 10.3214C6.35702 10.3901 6.58429 10.4251 6.81375 10.4242C7.04321 10.4234 7.27 10.3866 7.48011 10.3163C7.69023 10.2459 7.87921 10.1435 8.03539 10.0152C8.19158 9.88702 8.31165 9.73574 8.3882 9.57074C8.46474 9.40574 8.49614 9.23053 8.48045 9.05591V1.29371C8.48045 0.950594 8.65914 0.621536 8.97722 0.37892C9.2953 0.136304 9.72671 4.122e-06 10.1765 4.122e-06C10.6264 4.122e-06 11.0578 0.136304 11.3759 0.37892C11.6939 0.621536 11.8726 0.950594 11.8726 1.29371V9.12318C11.8821 9.46286 12.068 9.78577 12.3896 10.0209C12.7112 10.256 13.142 10.384 13.5874 10.3768C14.0327 10.3696 14.456 10.2277 14.7643 9.98244C15.0725 9.73716 15.2403 9.40853 15.2309 9.06885V1.30664C15.2309 0.584757 15.9975 4.122e-06 16.9473 4.122e-06C17.022 4.122e-06 17.3544 4.17738e-06 17.7174 0.139724Z" fill="#FF5751"/>
</svg>
