<svg width="20" height="20" viewBox="0 0 20 20" fill="none" xmlns="http://www.w3.org/2000/svg">
<path d="M9.99683 16.6614H17.4944" stroke="white" stroke-width="1.66613" stroke-linecap="round" stroke-linejoin="round"/>
<path d="M13.6422 3.01746C13.9739 2.68582 14.4237 2.49951 14.8927 2.49951C15.3617 2.49951 15.8115 2.68582 16.1431 3.01746C16.4747 3.34909 16.6611 3.79889 16.6611 4.26789C16.6611 4.73689 16.4747 5.18668 16.1431 5.51832L6.138 15.5243C5.93981 15.7224 5.69482 15.8674 5.42573 15.9458L3.03316 16.6439C2.96148 16.6648 2.88549 16.6661 2.81316 16.6475C2.74082 16.629 2.6748 16.5914 2.622 16.5386C2.5692 16.4858 2.53156 16.4197 2.51303 16.3474C2.4945 16.2751 2.49575 16.1991 2.51666 16.1274L3.21477 13.7348C3.29326 13.466 3.43824 13.2214 3.6363 13.0234L13.6422 3.01746Z" stroke="white" stroke-width="1.66613" stroke-linecap="round" stroke-linejoin="round"/>
</svg>
