<svg width="28" height="28" viewBox="0 0 28 28" fill="none" xmlns="http://www.w3.org/2000/svg">
<path d="M20.979 21.8457C20.1638 20.7664 19.1091 19.8911 17.898 19.2888C16.6869 18.6865 15.3526 18.3737 14 18.3749C12.6474 18.3737 11.313 18.6865 10.1019 19.2888C8.89085 19.8911 7.83617 20.7664 7.02098 21.8457M20.979 21.8457C22.5697 20.4308 23.6916 18.5657 24.198 16.4978C24.7044 14.43 24.5703 12.257 23.8134 10.2671C23.0564 8.27725 21.7125 6.56447 19.9598 5.35595C18.2071 4.14742 16.1284 3.50024 13.9994 3.50024C11.8704 3.50024 9.79173 4.14742 8.03901 5.35595C6.2863 6.56447 4.94236 8.27725 4.18543 10.2671C3.4285 12.257 3.29435 14.43 3.80076 16.4978C4.30718 18.5657 5.43022 20.4308 7.02098 21.8457M20.979 21.8457C19.0587 23.5586 16.5732 24.5036 14 24.4999C11.4263 24.5038 8.94158 23.5589 7.02098 21.8457M17.5 11.3749C17.5 12.3032 17.1312 13.1934 16.4748 13.8498C15.8185 14.5062 14.9282 14.8749 14 14.8749C13.0717 14.8749 12.1815 14.5062 11.5251 13.8498C10.8687 13.1934 10.5 12.3032 10.5 11.3749C10.5 10.4466 10.8687 9.5564 11.5251 8.90003C12.1815 8.24365 13.0717 7.8749 14 7.8749C14.9282 7.8749 15.8185 8.24365 16.4748 8.90003C17.1312 9.5564 17.5 10.4466 17.5 11.3749Z" stroke="#373742" stroke-width="1.5" stroke-linecap="round" stroke-linejoin="round"/>
</svg>
