<svg width="17" height="17" viewBox="0 0 17 17" fill="none" xmlns="http://www.w3.org/2000/svg">
<g clip-path="url(#clip0_144_1013)">
<path d="M9.88999 14.8818C9.91586 14.9463 9.96082 15.0013 10.0188 15.0394C10.0769 15.0776 10.1452 15.0971 10.2146 15.0953C10.2841 15.0936 10.3513 15.0706 10.4073 15.0295C10.4633 14.9884 10.5054 14.9312 10.5279 14.8655L14.953 1.93041C14.9748 1.87009 14.979 1.80481 14.965 1.74221C14.9511 1.67961 14.9196 1.62228 14.8742 1.57693C14.8289 1.53158 14.7715 1.50008 14.7089 1.48612C14.6463 1.47216 14.5811 1.47632 14.5207 1.49811L1.58569 5.92326C1.51999 5.94579 1.46275 5.98788 1.42167 6.04388C1.38058 6.09987 1.3576 6.1671 1.35582 6.23653C1.35405 6.30596 1.37355 6.37428 1.41172 6.43231C1.44988 6.49033 1.50489 6.5353 1.56935 6.56116L6.96803 8.72608C7.1387 8.79441 7.29376 8.89659 7.42387 9.02647C7.55398 9.15634 7.65644 9.31122 7.72507 9.48176L9.88999 14.8818Z" stroke="white" stroke-width="1.36158" stroke-linecap="round" stroke-linejoin="round"/>
<path d="M14.872 1.57959L7.42416 9.02678" stroke="white" stroke-width="1.36158" stroke-linecap="round" stroke-linejoin="round"/>
</g>
<defs>
<clipPath id="clip0_144_1013">
<rect width="16.339" height="16.339" fill="white"/>
</clipPath>
</defs>
</svg>
