<svg width="18" height="18" viewBox="0 0 18 18" fill="none" xmlns="http://www.w3.org/2000/svg">
<path d="M15.1875 7.01175V14.6223H13.5H10.125H2.81252V7.01175M15.1875 7.01175C14.7376 7.27132 14.2117 7.36728 13.6991 7.28335C13.1865 7.19942 12.7187 6.94076 12.375 6.55125M15.1875 7.01175C15.4865 6.83918 15.7417 6.60014 15.9335 6.31313C16.1252 6.02613 15.1875 2.25 15.1875 2.25H12.0938M2.81252 7.01175C3.26254 7.27124 3.78846 7.36707 4.30108 7.283C4.8137 7.19893 5.28146 6.94013 5.62502 6.5505M2.81252 7.01175C2.51404 6.83876 2.25928 6.59954 2.06787 6.31253L2.81252 2.25H5.90627M5.62502 6.5505C5.83592 6.79022 6.09554 6.98219 6.38654 7.11359C6.67754 7.245 6.99323 7.31281 7.31252 7.3125C7.98452 7.3125 8.58752 7.01775 9.00002 6.5505M5.62502 6.5505L5.90627 2.25M9.00002 6.5505C9.21092 6.79022 9.47054 6.98219 9.76154 7.11359C10.0525 7.245 10.3682 7.31281 10.6875 7.3125C11.3595 7.3125 11.9625 7.01775 12.375 6.55125M9.00002 6.5505V2.25M12.375 6.55125L12.0938 2.25M9.00002 2.25H5.90627M9.00002 2.25H12.0938" stroke="#545454" stroke-width="1.5" stroke-linecap="round" stroke-linejoin="round"/>
</svg>
