<svg width="20" height="20" viewBox="0 0 20 20" fill="none" xmlns="http://www.w3.org/2000/svg">
<path d="M9.99903 10.8323C10.4592 10.8323 10.8323 10.4592 10.8323 9.99903C10.8323 9.53884 10.4592 9.16577 9.99903 9.16577C9.53884 9.16577 9.16577 9.53884 9.16577 9.99903C9.16577 10.4592 9.53884 10.8323 9.99903 10.8323Z" stroke="#0A0A0A" stroke-width="1.66652" stroke-linecap="round" stroke-linejoin="round"/>
<path d="M9.99903 4.99953C10.4592 4.99953 10.8323 4.62647 10.8323 4.16627C10.8323 3.70607 10.4592 3.33301 9.99903 3.33301C9.53884 3.33301 9.16577 3.70607 9.16577 4.16627C9.16577 4.62647 9.53884 4.99953 9.99903 4.99953Z" stroke="#0A0A0A" stroke-width="1.66652" stroke-linecap="round" stroke-linejoin="round"/>
<path d="M9.99903 16.6653C10.4592 16.6653 10.8323 16.2922 10.8323 15.832C10.8323 15.3718 10.4592 14.9988 9.99903 14.9988C9.53884 14.9988 9.16577 15.3718 9.16577 15.832C9.16577 16.2922 9.53884 16.6653 9.99903 16.6653Z" stroke="#0A0A0A" stroke-width="1.66652" stroke-linecap="round" stroke-linejoin="round"/>
</svg>
