<svg width="13" height="10" viewBox="0 0 13 10" fill="none" xmlns="http://www.w3.org/2000/svg">
<path d="M1.58337 0.489938C1.44119 0.114999 0.981635 -0.085861 0.555085 0.0368869C0.128535 0.159635 -0.0999737 0.568051 0.0422096 0.940758L1.44373 4.34328H0.811523C0.473837 4.34328 0.202166 4.58208 0.202166 4.87891C0.202166 5.17573 0.473837 5.41454 0.811523 5.41454H1.84997L3.28957 9.51079C3.40383 9.81208 3.73136 10.0107 4.09189 9.99955C4.45243 9.98839 4.76219 9.76745 4.84851 9.45946L5.91489 5.41454H7.08282L8.14919 9.45946C8.23552 9.76745 8.54528 9.98839 8.90581 9.99955C9.26635 10.0107 9.59388 9.81208 9.70813 9.51079L11.1477 5.41454H12.1862C12.5239 5.41454 12.7955 5.17573 12.7955 4.87891C12.7955 4.58208 12.5239 4.34328 12.1862 4.34328H11.554L12.958 0.940758C13.1002 0.565819 12.8692 0.161867 12.4452 0.0368869C12.0211 -0.0880928 11.5591 0.114999 11.4169 0.487707L9.8427 4.34105H8.45641L7.29102 0.539037C7.19707 0.224356 6.87208 0.00117843 6.49885 0.00117843C6.12562 0.00117843 5.80063 0.224356 5.71177 0.541269L4.54383 4.34328H3.15755L1.58337 0.489938ZM3.56378 5.41454H4.23915L3.94971 6.73223L3.56378 5.41454ZM6.21956 4.34328L6.49885 3.65907L6.77814 4.34328H6.21956ZM8.75855 5.41454H9.43392L9.04799 6.73223L8.75855 5.41454Z" fill="#848484"/>
</svg>
